<svg width="65" height="93" viewBox="0 0 65 93" fill="none" xmlns="http://www.w3.org/2000/svg">
<g filter="url(#filter0_d_2_61)">
<path d="M7.32 85.8C6.21543 85.8 5.32 84.9046 5.32 83.8V74.96C5.32 73.8554 6.21543 72.96 7.32 72.96H22.04C23.1446 72.96 24.04 72.0646 24.04 70.96V23.0534C24.04 21.6227 22.5816 20.6547 21.2632 21.2104L11.3819 25.3752C10.3567 25.8074 9.17591 25.3198 8.75428 24.2902L5.10925 15.3896C4.69406 14.3757 5.17181 13.2165 6.18078 12.7897L28.9464 3.15807C29.193 3.05375 29.458 3 29.7257 3H38.72C39.8246 3 40.72 3.89543 40.72 5V70.96C40.72 72.0646 41.6154 72.96 42.72 72.96H56.48C57.5846 72.96 58.48 73.8554 58.48 74.96V83.8C58.48 84.9046 57.5846 85.8 56.48 85.8H7.32Z" fill="#4876CE"/>
<path d="M4.82 83.8C4.82 85.1807 5.93929 86.3 7.32 86.3H56.48C57.8607 86.3 58.98 85.1807 58.98 83.8V74.96C58.98 73.5793 57.8607 72.46 56.48 72.46H42.72C41.8916 72.46 41.22 71.7884 41.22 70.96V5C41.22 3.61929 40.1007 2.5 38.72 2.5H29.7257C29.391 2.5 29.0598 2.56719 28.7516 2.69758L5.98596 12.3292C4.72474 12.8628 4.12756 14.3118 4.64654 15.579L8.29157 24.4797C8.81861 25.7666 10.2946 26.3761 11.5761 25.836L21.4574 21.6711C22.4462 21.2544 23.54 21.9804 23.54 23.0534V70.96C23.54 71.7884 22.8684 72.46 22.04 72.46H7.32C5.93929 72.46 4.82 73.5793 4.82 74.96V83.8Z" stroke="#5A92E3"/>
</g>
<defs>
<filter id="filter0_d_2_61" x="0.959305" y="0" width="63.5207" height="92.8" filterUnits="userSpaceOnUse" color-interpolation-filters="sRGB">
<feFlood flood-opacity="0" result="BackgroundImageFix"/>
<feColorMatrix in="SourceAlpha" type="matrix" values="0 0 0 0 0 0 0 0 0 0 0 0 0 0 0 0 0 0 127 0" result="hardAlpha"/>
<feOffset dx="1" dy="2"/>
<feGaussianBlur stdDeviation="2"/>
<feComposite in2="hardAlpha" operator="out"/>
<feColorMatrix type="matrix" values="0 0 0 0 0.282353 0 0 0 0 0.462745 0 0 0 0 0.807843 0 0 0 1 0"/>
<feBlend mode="normal" in2="BackgroundImageFix" result="effect1_dropShadow_2_61"/>
<feBlend mode="normal" in="SourceGraphic" in2="effect1_dropShadow_2_61" result="shape"/>
</filter>
</defs>
</svg>
