<svg width="82" height="107" viewBox="0 0 82 107" fill="none" xmlns="http://www.w3.org/2000/svg">
<g filter="url(#filter0_d_2_91)">
<path d="M11.1928 24.0709C10.5417 23.257 10.6224 22.0766 11.4029 21.3858C13.7172 19.3376 16.1429 17.5123 18.68 15.9099C21.8 13.9099 25.12 12.3899 28.64 11.3499C32.24 10.2299 36.04 9.66992 40.04 9.66992C45.32 9.66992 50.08 10.7499 54.32 12.9099C58.64 15.0699 62.04 18.0699 64.52 21.9099C67 25.6699 68.24 29.9899 68.24 34.8699C68.24 38.2299 67.6 41.5499 66.32 44.8299C65.12 48.0299 63.16 51.3499 60.44 54.7899C57.72 58.1499 54.08 61.9099 49.52 66.0699L39.0756 75.5489C37.7213 76.778 38.5908 79.0299 40.4197 79.0299H67.44C68.5446 79.0299 69.44 79.9254 69.44 81.0299V91.7899C69.44 92.8945 68.5446 93.7899 67.44 93.7899H13.36C12.2554 93.7899 11.36 92.8945 11.36 91.7899V83.586C11.36 83.051 11.5743 82.5384 11.955 82.1626L39.2 55.2699C42.08 52.3099 44.36 49.7899 46.04 47.7099C47.8 45.5499 49.08 43.5899 49.88 41.8299C50.68 39.9899 51.08 38.1899 51.08 36.4299C51.08 34.3499 50.6 32.4699 49.64 30.7899C48.68 29.0299 47.28 27.6699 45.44 26.7099C43.6 25.6699 41.28 25.1499 38.48 25.1499C36.08 25.1499 33.8 25.5499 31.64 26.3499C29.48 27.0699 27.4 28.1499 25.4 29.5899C24.019 30.5682 22.6379 31.712 21.2569 33.0213C20.38 33.8527 18.97 33.7924 18.2151 32.8488L11.1928 24.0709Z" fill="#4876CE"/>
<path d="M60.8286 55.1045L60.8287 55.1045L60.8322 55.1C63.5749 51.6314 65.5644 48.2676 66.787 45.0086C68.0877 41.6745 68.74 38.294 68.74 34.8699C68.74 29.9015 67.4763 25.4849 64.9389 21.6369C62.408 17.7188 58.9392 14.6608 54.5453 12.4636C50.228 10.2645 45.3895 9.16992 40.04 9.16992C35.994 9.16992 32.1448 9.73629 28.4949 10.8714C24.931 11.9247 21.5696 13.4639 18.4117 15.488C15.8516 17.105 13.4049 18.9463 11.0716 21.0114C10.0842 21.8852 9.99097 23.369 10.8024 24.3833L17.8247 33.1612C18.7724 34.3458 20.5234 34.4058 21.6009 33.3842C22.9668 32.0892 24.3296 30.9609 25.689 29.9979L25.689 29.9979L25.6922 29.9957C27.6546 28.5828 29.6898 27.527 31.7981 26.8243L31.8059 26.8217L31.8137 26.8188C33.9158 26.0402 36.1368 25.6499 38.48 25.6499C41.2209 25.6499 43.4495 26.1592 45.194 27.1452L45.2013 27.1493L45.2087 27.1532C46.9641 28.0691 48.2903 29.3596 49.2011 31.0293L49.201 31.0294L49.2059 31.038C50.1195 32.6368 50.58 34.4302 50.58 36.4299C50.58 38.1111 50.1985 39.8422 49.4232 41.6267C48.6467 43.3337 47.3949 45.2556 45.6524 47.3941L45.651 47.3958C43.9851 49.4584 41.7179 51.965 38.8452 54.9176C38.844 54.9188 38.8428 54.92 38.8417 54.9212L11.6038 81.8067C11.1279 82.2765 10.86 82.9173 10.86 83.586V91.7899C10.86 93.1706 11.9793 94.2899 13.36 94.2899H67.44C68.8207 94.2899 69.94 93.1706 69.94 91.7899V81.0299C69.94 79.6492 68.8207 78.5299 67.44 78.5299H40.4197C39.048 78.5299 38.3959 76.841 39.4116 75.9192L49.856 66.4402L49.857 66.4393C54.4284 62.2689 58.0877 58.4904 60.8286 55.1045Z" stroke="#5A92E3"/>
</g>
<defs>
<filter id="filter0_d_2_91" x="0.755676" y="0.669922" width="80.6843" height="106.12" filterUnits="userSpaceOnUse" color-interpolation-filters="sRGB">
<feFlood flood-opacity="0" result="BackgroundImageFix"/>
<feColorMatrix in="SourceAlpha" type="matrix" values="0 0 0 0 0 0 0 0 0 0 0 0 0 0 0 0 0 0 127 0" result="hardAlpha"/>
<feOffset dx="1" dy="2"/>
<feGaussianBlur stdDeviation="5"/>
<feComposite in2="hardAlpha" operator="out"/>
<feColorMatrix type="matrix" values="0 0 0 0 0.282353 0 0 0 0 0.462745 0 0 0 0 0.807843 0 0 0 1 0"/>
<feBlend mode="normal" in2="BackgroundImageFix" result="effect1_dropShadow_2_91"/>
<feBlend mode="normal" in="SourceGraphic" in2="effect1_dropShadow_2_91" result="shape"/>
</filter>
</defs>
</svg>
