<svg width="72" height="95" viewBox="0 0 72 95" fill="none" xmlns="http://www.w3.org/2000/svg">
<g filter="url(#filter0_d_2_106)">
<path d="M5.28656 77.7309C4.51851 77.0528 4.4379 75.8953 5.06691 75.0866L11.7659 66.4737C12.5194 65.5048 13.9566 65.442 14.8624 66.2702C16.9742 68.2013 19.2601 69.7345 21.72 70.8698C24.92 72.3098 28.44 73.0298 32.28 73.0298C37 73.0298 40.84 72.0298 43.8 70.0298C46.84 67.9498 48.36 64.9898 48.36 61.1498C48.36 58.8298 47.68 56.7898 46.32 55.0298C45.04 53.1898 43.16 51.7498 40.68 50.7098C38.2 49.6698 35.08 49.1498 31.32 49.1498H22.88C21.7754 49.1498 20.88 48.2544 20.88 47.1498V40.5911C20.88 40.0768 21.0781 39.5822 21.4333 39.2102L37.8127 22.0507C39.0276 20.778 38.1255 18.6698 36.366 18.6698H8.95999C7.85543 18.6698 6.95999 17.7744 6.95999 16.6698V5.78979C6.95999 4.68522 7.85542 3.78979 8.95999 3.78979H60.16C61.2646 3.78979 62.16 4.68523 62.16 5.78979V14.011C62.16 14.5357 61.9538 15.0394 61.5858 15.4135L43.3685 33.9327C42.1907 35.1301 42.9226 37.1955 44.5668 37.5382C47.7081 38.193 50.5725 39.2235 53.16 40.6298C56.92 42.6298 59.84 45.3498 61.92 48.7898C64 52.2298 65.04 56.3498 65.04 61.1498C65.04 66.9898 63.6 71.9098 60.72 75.9098C57.84 79.9098 54.04 82.9098 49.32 84.9098C44.6 86.9098 39.44 87.9098 33.84 87.9098C27.68 87.9098 22.12 86.9498 17.16 85.0298C12.8231 83.3235 8.86526 80.8905 5.28656 77.7309Z" fill="#4876CE"/>
<path d="M45.9095 55.3153L45.9167 55.3256L45.9244 55.3355C47.2136 57.004 47.86 58.9353 47.86 61.1498C47.86 64.8326 46.4151 67.6341 43.519 69.6162C40.6646 71.5445 36.9312 72.5298 32.28 72.5298C28.5048 72.5298 25.0562 71.8225 21.9271 70.4147C19.5174 69.3022 17.2751 67.7989 15.1998 65.9012C14.0976 64.8934 12.3193 64.9477 11.3712 66.1667L4.67223 74.7796C3.88926 75.7863 3.97982 77.2442 4.95563 78.1057C8.5769 81.3029 12.5845 83.7669 16.9769 85.4951L16.9795 85.4961C22.0054 87.4416 27.6279 88.4098 33.84 88.4098C39.5008 88.4098 44.7279 87.3987 49.5151 85.3702C54.3158 83.336 58.1901 80.2793 61.1258 76.202C64.0777 72.102 65.54 67.0747 65.54 61.1498C65.54 56.2764 64.4835 52.0631 62.3479 48.5311C60.2187 45.0098 57.2306 42.2291 53.3968 40.1894C50.7632 38.7584 47.8528 37.7124 44.6689 37.0487C43.3652 36.777 42.8575 35.1652 43.725 34.2833L61.9422 15.7642C62.4022 15.2966 62.66 14.6669 62.66 14.011V5.78979C62.66 4.40908 61.5407 3.28979 60.16 3.28979H8.95999C7.57928 3.28979 6.45999 4.40908 6.45999 5.78979V16.6698C6.45999 18.0505 7.57928 19.1698 8.95999 19.1698H36.366C37.6856 19.1698 38.3622 20.751 37.451 21.7055L21.0716 38.8649C20.6277 39.33 20.38 39.9482 20.38 40.5911V47.1498C20.38 48.5305 21.4993 49.6498 22.88 49.6498H31.32C35.0382 49.6498 38.0871 50.1646 40.4866 51.1709C42.8967 52.1816 44.6938 53.5676 45.9095 55.3153Z" stroke="#5A92E3"/>
</g>
<defs>
<filter id="filter0_d_2_106" x="0.647079" y="0.789795" width="70.3929" height="94.12" filterUnits="userSpaceOnUse" color-interpolation-filters="sRGB">
<feFlood flood-opacity="0" result="BackgroundImageFix"/>
<feColorMatrix in="SourceAlpha" type="matrix" values="0 0 0 0 0 0 0 0 0 0 0 0 0 0 0 0 0 0 127 0" result="hardAlpha"/>
<feOffset dx="1" dy="2"/>
<feGaussianBlur stdDeviation="2"/>
<feComposite in2="hardAlpha" operator="out"/>
<feColorMatrix type="matrix" values="0 0 0 0 0.282353 0 0 0 0 0.462745 0 0 0 0 0.807843 0 0 0 1 0"/>
<feBlend mode="normal" in2="BackgroundImageFix" result="effect1_dropShadow_2_106"/>
<feBlend mode="normal" in="SourceGraphic" in2="effect1_dropShadow_2_106" result="shape"/>
</filter>
</defs>
</svg>
