<svg width="76" height="94" viewBox="0 0 76 94" fill="none" xmlns="http://www.w3.org/2000/svg">
<g filter="url(#filter0_d_2_231)">
<path d="M4 61.0063C4 60.6549 4.0926 60.3097 4.26848 60.0054L36.3025 4.58892C36.6599 3.97064 37.3198 3.58984 38.034 3.58984H56.6C57.7046 3.58984 58.6 4.48527 58.6 5.58984V54.8698C58.6 55.9744 59.4954 56.8698 60.6 56.8698H67.64C68.7446 56.8698 69.64 57.7653 69.64 58.8698V69.5099C69.64 70.6144 68.7446 71.5099 67.64 71.5099H60.6C59.4954 71.5099 58.6 72.4053 58.6 73.5099V84.3898C58.6 85.4944 57.7046 86.3898 56.6 86.3898H43.92C42.8154 86.3898 41.92 85.4944 41.92 84.3898V73.5099C41.92 72.4053 41.0246 71.5099 39.92 71.5099H6C4.89543 71.5099 4 70.6144 4 69.5099V61.0063ZM18.7869 60.3754C18.0245 61.704 16.1126 61.7174 15.3317 60.3995L15.0294 59.8895C14.2393 58.5562 15.2003 56.8698 16.75 56.8698H39.92C41.0246 56.8698 41.92 55.9744 41.92 54.8698V14.6493C41.92 13.6827 42.8518 12.9894 43.7777 13.2672C44.6681 13.5343 45.0773 14.5613 44.6146 15.3676L18.7869 60.3754Z" fill="#4876CE"/>
<path d="M3.8356 59.7552C3.61575 60.1355 3.5 60.567 3.5 61.0063V69.5099C3.5 70.8906 4.61928 72.0099 6 72.0099H39.92C40.7484 72.0099 41.42 72.6814 41.42 73.5099V84.3898C41.42 85.7706 42.5393 86.8898 43.92 86.8898H56.6C57.9807 86.8898 59.1 85.7706 59.1 84.3898V73.5099C59.1 72.6814 59.7716 72.0099 60.6 72.0099H67.64C69.0207 72.0099 70.14 70.8906 70.14 69.5099V58.8698C70.14 57.4891 69.0207 56.3698 67.64 56.3698H60.6C59.7716 56.3698 59.1 55.6983 59.1 54.8698V5.58984C59.1 4.20913 57.9807 3.08984 56.6 3.08984H38.034C37.1413 3.08984 36.3164 3.56584 35.8696 4.33869L3.8356 59.7552ZM21.662 56.3698L41.42 21.9392V54.8698C41.42 55.6983 40.7484 56.3698 39.92 56.3698H21.662Z" stroke="#5A92E3"/>
</g>
<defs>
<filter id="filter0_d_2_231" x="0" y="0.589844" width="75.64" height="92.8" filterUnits="userSpaceOnUse" color-interpolation-filters="sRGB">
<feFlood flood-opacity="0" result="BackgroundImageFix"/>
<feColorMatrix in="SourceAlpha" type="matrix" values="0 0 0 0 0 0 0 0 0 0 0 0 0 0 0 0 0 0 127 0" result="hardAlpha"/>
<feOffset dx="1" dy="2"/>
<feGaussianBlur stdDeviation="2"/>
<feComposite in2="hardAlpha" operator="out"/>
<feColorMatrix type="matrix" values="0 0 0 0 0.282353 0 0 0 0 0.462745 0 0 0 0 0.807843 0 0 0 1 0"/>
<feBlend mode="normal" in2="BackgroundImageFix" result="effect1_dropShadow_2_231"/>
<feBlend mode="normal" in="SourceGraphic" in2="effect1_dropShadow_2_231" result="shape"/>
</filter>
</defs>
</svg>
