<svg width="72" height="95" viewBox="0 0 72 95" fill="none" xmlns="http://www.w3.org/2000/svg">
<g filter="url(#filter0_d_2_524)">
<path d="M5.60656 77.3313C4.83852 76.6532 4.7579 75.4957 5.38692 74.687L12.0859 66.074C12.8394 65.1052 14.2766 65.0423 15.1824 65.8706C17.2942 67.8016 19.5801 69.3348 22.04 70.4701C25.24 71.9101 28.76 72.6301 32.6 72.6301C37.4 72.6301 41.28 71.5501 44.24 69.3901C47.2 67.1501 48.68 64.0701 48.68 60.1501C48.68 56.5501 47.28 53.5101 44.48 51.0301C41.68 48.5501 37.72 47.3101 32.6 47.3101C29.48 47.3101 26.56 47.8701 23.84 48.9901C21.6221 49.9311 19.4607 51.2108 17.3558 52.8292C16.6384 53.3808 15.6446 53.4294 14.9032 52.9104L9.87173 49.3884C9.30484 48.9915 8.98335 48.3299 9.02173 47.6389L11.3751 5.2792C11.4339 4.21936 12.3105 3.39014 13.372 3.39014H57.84C58.9446 3.39014 59.84 4.28557 59.84 5.39014V16.3901C59.84 17.4947 58.9446 18.3901 57.84 18.3901H26.8113C25.7501 18.3901 24.8737 19.219 24.8144 20.2785L24.0433 34.0742C23.9552 35.6496 25.6624 36.7328 27.1372 36.172C28.1624 35.7821 29.2233 35.4549 30.32 35.1901C32.64 34.6301 35.04 34.3501 37.52 34.3501C42.88 34.3501 47.64 35.4301 51.8 37.5901C56.04 39.7501 59.36 42.7901 61.76 46.7101C64.24 50.5501 65.48 55.1901 65.48 60.6301C65.48 66.3101 64.04 71.1901 61.16 75.2701C58.36 79.2701 54.6 82.3101 49.88 84.3901C45.16 86.4701 39.92 87.5101 34.16 87.5101C28 87.5101 22.44 86.5501 17.48 84.6301C13.1431 82.9238 9.18527 80.4909 5.60656 77.3313Z" fill="#4876CE"/>
<path d="M15.5198 65.5016L15.1824 65.8706L15.5198 65.5016C14.4176 64.4937 12.6393 64.548 11.6912 65.7671L4.99224 74.38C4.20927 75.3867 4.29983 76.8446 5.27564 77.7061C8.89691 80.9033 12.9045 83.3673 17.2969 85.0954L17.2995 85.0964C22.3254 87.0419 27.9479 88.0101 34.16 88.0101C39.9813 88.0101 45.2911 86.9588 50.0816 84.8477C54.8797 82.7333 58.7132 79.6369 61.5685 75.5585C64.516 71.3828 65.98 66.3987 65.98 60.6301C65.98 55.1148 64.7225 50.378 62.1833 46.4439C59.7339 42.4454 56.3453 39.3449 52.0289 37.1456C47.7884 34.9442 42.948 33.8501 37.52 33.8501C35.002 33.8501 32.5626 34.1345 30.2027 34.7041C29.0861 34.9736 28.0049 35.3071 26.9595 35.7046C25.7691 36.1573 24.4777 35.26 24.5425 34.1021L25.3137 20.3064C25.3581 19.5118 26.0154 18.8901 26.8113 18.8901H57.84C59.2207 18.8901 60.34 17.7709 60.34 16.3901V5.39014C60.34 4.00942 59.2207 2.89014 57.84 2.89014H13.372C12.0451 2.89014 10.9494 3.92667 10.8758 5.25146L8.5225 47.6112C8.47452 48.4749 8.87638 49.3019 9.585 49.798L14.6165 53.32C15.547 53.9714 16.7801 53.9025 17.6605 53.2256C19.7344 51.631 21.8586 50.3741 24.0328 49.4515C26.6881 48.3585 29.5422 47.8101 32.6 47.8101C37.6431 47.8101 41.4689 49.0311 44.1485 51.4044C46.8461 53.7937 48.18 56.6995 48.18 60.1501C48.18 63.9222 46.7666 66.8496 43.9417 68.9889C41.0908 71.0678 37.3248 72.1301 32.6 72.1301C28.8248 72.1301 25.3762 71.4228 22.2471 70.0151C19.8374 68.9026 17.5951 67.3992 15.5198 65.5016Z" stroke="#5A92E3"/>
</g>
<defs>
<filter id="filter0_d_2_524" x="0.967087" y="0.390137" width="70.5129" height="94.1201" filterUnits="userSpaceOnUse" color-interpolation-filters="sRGB">
<feFlood flood-opacity="0" result="BackgroundImageFix"/>
<feColorMatrix in="SourceAlpha" type="matrix" values="0 0 0 0 0 0 0 0 0 0 0 0 0 0 0 0 0 0 127 0" result="hardAlpha"/>
<feOffset dx="1" dy="2"/>
<feGaussianBlur stdDeviation="2"/>
<feComposite in2="hardAlpha" operator="out"/>
<feColorMatrix type="matrix" values="0 0 0 0 0.282353 0 0 0 0 0.462745 0 0 0 0 0.807843 0 0 0 1 0"/>
<feBlend mode="normal" in2="BackgroundImageFix" result="effect1_dropShadow_2_524"/>
<feBlend mode="normal" in="SourceGraphic" in2="effect1_dropShadow_2_524" result="shape"/>
</filter>
</defs>
</svg>
